<?xml version="1.0" standalone="no"?>
<!DOCTYPE svg PUBLIC "-//W3C//DTD SVG 20010904//EN"
 "http://www.w3.org/TR/2001/REC-SVG-20010904/DTD/svg10.dtd">
<svg version="1.0" xmlns="http://www.w3.org/2000/svg"
 width="1271.000000pt" height="1266.000000pt" viewBox="0 0 1271.000000 1266.000000"
 preserveAspectRatio="xMidYMid meet">
<metadata>
Created by potrace 1.16, written by Peter Selinger 2001-2019
</metadata>
<g transform="translate(0.000000,1266.000000) scale(0.100000,-0.100000)"
fill="#000000" stroke="none">
<path d="M5760 12645 c-22 -9 -81 -14 -163 -14 -107 -1 -134 -4 -167 -21 -32
-16 -59 -20 -146 -20 -104 0 -107 -1 -141 -30 -37 -33 -84 -39 -140 -20 -32
11 -114 -5 -169 -33 -16 -8 -56 -18 -89 -21 -68 -8 -100 -16 -240 -56 -55 -16
-127 -36 -160 -45 -33 -10 -99 -35 -146 -56 -48 -22 -100 -39 -115 -39 -16 0
-56 -14 -89 -30 -33 -16 -69 -30 -80 -30 -11 0 -42 -12 -70 -26 -27 -14 -66
-32 -85 -39 -126 -49 -189 -80 -220 -110 -27 -26 -51 -37 -110 -50 -96 -22
-145 -42 -191 -81 -20 -17 -72 -48 -115 -69 -44 -21 -96 -53 -118 -71 -21 -18
-59 -40 -84 -48 -29 -10 -68 -38 -108 -76 -47 -45 -69 -60 -92 -60 -17 0 -37
-9 -48 -21 -30 -34 -200 -161 -260 -194 -29 -16 -78 -52 -109 -80 -65 -59
-196 -175 -313 -277 -46 -40 -179 -167 -297 -282 -173 -169 -217 -217 -231
-255 -17 -46 -44 -80 -202 -252 -45 -50 -82 -95 -82 -100 0 -5 -25 -36 -55
-69 -37 -40 -55 -68 -55 -86 0 -16 -17 -43 -49 -77 -30 -33 -51 -65 -55 -87
-4 -22 -23 -52 -50 -80 -25 -25 -64 -83 -89 -130 -24 -47 -58 -112 -76 -145
-71 -130 -161 -312 -176 -354 -8 -24 -15 -59 -15 -78 0 -39 -21 -93 -49 -129
-11 -14 -25 -42 -32 -62 -6 -20 -35 -88 -65 -149 -48 -103 -53 -117 -47 -162
8 -67 -1 -95 -46 -144 -54 -59 -91 -175 -91 -284 0 -73 -3 -85 -25 -112 -34
-39 -58 -128 -61 -221 -1 -41 -5 -90 -9 -108 -6 -25 -3 -38 11 -53 25 -28 36
-122 19 -173 -7 -23 -16 -63 -19 -91 -11 -96 -23 -145 -41 -165 -13 -14 -15
-27 -10 -47 8 -34 8 -43 -5 -203 -6 -69 -15 -177 -20 -240 -5 -63 -12 -144
-16 -179 -5 -54 -2 -72 17 -112 19 -41 20 -53 11 -74 -7 -14 -12 -33 -12 -42
0 -9 -9 -35 -20 -58 -31 -65 -50 -145 -39 -173 5 -13 9 -65 9 -117 0 -94 19
-194 47 -248 23 -46 34 -121 43 -292 5 -88 14 -187 20 -220 6 -33 16 -80 20
-105 5 -25 14 -71 19 -103 5 -32 14 -64 20 -71 18 -22 41 -108 41 -157 0 -50
29 -143 61 -198 11 -19 25 -59 30 -89 4 -30 15 -64 24 -76 63 -85 65 -90 65
-136 0 -30 6 -52 15 -60 8 -6 26 -51 41 -98 15 -48 38 -118 51 -157 14 -38 31
-92 39 -120 10 -34 28 -64 60 -96 36 -37 47 -55 51 -90 4 -28 16 -56 34 -77
16 -18 29 -41 29 -50 0 -46 45 -147 86 -193 24 -28 44 -57 44 -67 0 -10 11
-33 24 -52 12 -19 28 -52 35 -72 7 -20 19 -42 27 -49 23 -19 84 -114 84 -131
0 -9 8 -26 19 -39 10 -13 31 -49 46 -79 15 -30 38 -68 50 -85 12 -16 28 -46
34 -65 6 -20 36 -60 66 -90 30 -30 60 -70 66 -90 6 -19 38 -63 70 -97 33 -34
59 -67 59 -75 0 -31 54 -125 105 -182 66 -74 52 -60 209 -203 71 -65 140 -136
153 -158 14 -22 61 -76 104 -120 44 -44 114 -116 157 -160 66 -69 85 -83 135
-98 51 -16 65 -17 107 -6 l49 13 45 -42 c29 -26 55 -42 71 -42 17 0 48 -20 93
-60 37 -33 95 -85 129 -116 43 -39 76 -59 105 -66 26 -5 58 -24 85 -48 23 -22
49 -40 57 -40 9 0 30 -13 48 -29 18 -15 50 -34 71 -40 21 -7 50 -23 65 -35 15
-13 47 -33 72 -46 25 -12 54 -30 65 -39 11 -10 43 -26 70 -36 38 -14 76 -43
160 -125 106 -103 113 -107 195 -134 47 -15 105 -38 130 -51 55 -29 216 -85
242 -85 11 0 40 -12 65 -27 25 -14 61 -30 81 -34 58 -13 145 -38 167 -48 28
-14 213 -55 295 -65 40 -5 83 -15 190 -45 43 -11 100 -19 132 -18 41 1 61 -3
75 -15 11 -10 29 -18 40 -18 11 0 51 -11 89 -25 38 -14 90 -25 116 -25 26 0
50 -5 53 -10 3 -6 33 -10 65 -10 32 0 62 -5 65 -10 8 -13 92 -13 100 0 3 5 32
9 63 9 68 -2 172 22 210 48 25 17 95 24 217 21 180 -4 353 9 492 38 17 3 46 1
65 -4 34 -11 326 0 380 13 22 6 34 0 71 -34 24 -22 64 -50 88 -60 45 -20 69
-19 165 10 17 5 47 9 67 9 19 0 48 5 64 12 15 6 64 15 108 19 106 10 154 19
161 30 3 5 20 9 39 9 19 0 37 5 40 10 3 6 17 10 30 10 13 0 26 4 29 9 5 7 73
25 201 53 28 5 60 14 73 19 13 5 36 9 51 9 16 0 55 14 86 30 31 17 61 30 67
30 5 0 30 16 56 35 43 34 50 35 97 30 44 -6 63 -2 140 30 50 20 110 43 135 52
25 8 62 29 83 45 20 16 52 34 70 40 17 6 55 27 84 46 28 18 71 38 95 43 24 6
55 22 70 36 17 17 42 27 72 30 32 4 57 15 84 39 21 18 52 36 68 39 16 4 38 9
48 12 11 3 52 36 92 74 47 44 81 69 96 69 13 0 35 8 49 18 15 9 45 29 67 45
23 15 48 27 56 27 13 0 39 18 140 100 24 19 67 53 96 75 29 22 72 56 95 76 24
20 56 40 72 43 15 4 63 40 105 79 111 103 158 143 224 186 63 41 302 281 369
370 22 29 74 90 115 135 87 96 124 142 165 211 33 53 114 164 169 230 18 22
45 63 59 91 15 29 48 71 75 95 28 24 53 55 57 69 4 14 26 46 49 71 53 61 86
115 86 143 0 13 9 35 20 49 11 14 20 32 20 41 0 9 17 35 38 59 45 50 86 113
97 147 4 14 48 106 96 204 49 98 89 184 89 191 0 7 18 48 39 91 47 95 121 280
121 303 0 9 9 41 20 71 11 30 20 74 20 99 0 36 6 50 35 82 26 29 35 48 35 75
0 25 9 48 31 76 28 34 30 42 20 64 -17 37 -13 85 9 119 13 19 20 47 20 77 0
34 9 65 32 109 26 49 33 76 37 144 5 62 11 88 25 104 15 16 17 28 11 58 -10
49 -9 75 5 143 6 30 15 96 20 145 13 134 26 221 35 234 9 16 27 138 25 171 -1
14 -1 34 -1 45 6 337 6 974 -2 1015 -9 52 -11 80 -21 225 -2 33 -9 89 -16 125
-6 36 -15 94 -20 130 -10 76 -26 175 -40 245 -6 28 -14 79 -19 115 -4 36 -15
79 -24 96 -12 23 -14 48 -10 107 6 75 5 77 -26 112 -27 31 -31 43 -31 91 0 52
-7 72 -57 158 -7 11 -13 31 -13 44 0 12 -9 40 -20 62 -13 25 -20 59 -20 95 0
50 -45 195 -80 257 -5 9 -25 59 -45 110 -20 51 -42 107 -49 123 -8 17 -22 55
-31 85 -22 68 -102 223 -173 335 -18 28 -39 66 -48 85 -65 144 -91 185 -141
228 -69 59 -100 113 -113 194 -34 213 -163 387 -367 494 -67 35 -84 49 -117
100 -21 32 -74 93 -116 134 -47 46 -80 86 -84 105 -7 28 -42 65 -142 150 -26
22 -58 58 -72 80 -77 125 -172 215 -288 273 -87 44 -174 64 -279 64 l-90 0
-117 116 c-103 102 -118 121 -118 150 0 26 -10 41 -47 77 -52 49 -116 85 -152
85 -29 0 -105 44 -158 91 -44 41 -131 89 -160 89 -10 1 -43 16 -73 35 -108 67
-259 137 -370 170 -14 4 -51 20 -82 36 -31 16 -78 33 -103 39 -26 6 -66 23
-89 39 -41 28 -80 42 -206 76 -101 27 -160 46 -189 61 -17 9 -60 14 -124 14
-88 0 -103 3 -157 30 -33 17 -67 30 -77 30 -10 0 -43 9 -73 21 -30 11 -80 25
-110 31 -30 5 -77 14 -105 19 -71 14 -252 31 -305 29 -71 -2 -123 -1 -307 7
-157 7 -174 10 -200 31 -44 35 -68 42 -105 31 -18 -5 -51 -9 -74 -9 -23 0 -61
-7 -84 -15 -51 -18 -254 -21 -297 -4 -21 8 -42 7 -79 -1 -46 -11 -58 -10 -120
11 -42 14 -87 22 -116 21 -25 -2 -63 4 -83 13 -44 18 -59 18 -105 0z m330
-2245 c14 -4 44 -17 67 -29 55 -27 63 -27 108 9 43 34 58 36 100 13 42 -22
209 -34 317 -21 74 9 89 8 109 -6 27 -18 66 -21 104 -6 32 12 138 -16 220 -58
54 -27 164 -51 287 -61 71 -6 80 -9 115 -43 41 -38 46 -40 213 -56 63 -6 100
-16 145 -39 33 -17 80 -33 104 -36 28 -3 53 -15 71 -32 15 -15 47 -31 69 -36
23 -5 65 -25 93 -44 32 -23 62 -35 83 -35 23 0 46 -10 74 -34 23 -19 58 -40
79 -47 20 -7 53 -25 72 -40 122 -98 151 -119 173 -124 35 -9 411 -391 430
-437 9 -20 28 -43 44 -52 37 -19 234 -221 262 -268 12 -20 49 -61 83 -90 39
-34 68 -69 81 -98 11 -25 46 -73 78 -107 41 -42 59 -69 59 -87 0 -15 14 -41
34 -64 19 -21 43 -61 54 -90 11 -29 34 -68 51 -87 17 -20 31 -46 31 -58 0 -12
20 -51 45 -87 25 -38 51 -90 60 -125 8 -32 28 -75 43 -95 40 -48 52 -74 52
-107 1 -39 23 -117 38 -136 7 -8 17 -38 21 -67 6 -35 17 -60 36 -80 27 -28 28
-32 16 -70 -12 -41 -5 -66 44 -150 9 -15 15 -51 15 -89 0 -56 3 -67 30 -98 24
-26 30 -43 30 -78 0 -24 11 -75 25 -112 22 -62 24 -75 14 -132 -7 -46 -7 -67
2 -77 7 -9 9 -47 4 -121 -3 -59 -6 -138 -5 -175 2 -207 0 -273 -8 -373 -6 -60
-15 -137 -22 -170 -6 -34 -9 -88 -5 -125 9 -102 9 -105 -19 -147 -22 -33 -25
-44 -17 -66 12 -31 10 -39 -35 -132 -19 -39 -45 -115 -59 -169 -26 -104 -68
-208 -91 -227 -8 -7 -14 -30 -14 -56 0 -24 -11 -70 -25 -103 -16 -38 -25 -78
-25 -112 0 -58 -8 -74 -77 -152 -38 -43 -43 -53 -37 -82 6 -30 1 -40 -35 -79
-31 -34 -41 -53 -41 -79 0 -27 -12 -49 -57 -105 -32 -39 -71 -89 -88 -112 -16
-22 -49 -62 -72 -88 -30 -33 -43 -57 -43 -77 0 -24 -23 -51 -126 -154 -69 -68
-132 -136 -139 -150 -18 -34 -428 -428 -487 -468 -13 -8 -51 -40 -84 -71 -124
-113 -162 -140 -203 -150 -22 -5 -56 -22 -75 -37 -19 -16 -56 -45 -81 -64 -26
-19 -64 -49 -85 -66 -38 -30 -52 -37 -160 -76 -30 -11 -71 -28 -90 -38 -19
-10 -75 -40 -125 -67 -49 -26 -126 -60 -170 -75 -51 -18 -92 -40 -115 -62 -45
-43 -71 -56 -110 -56 -18 0 -43 -9 -57 -20 -21 -17 -41 -20 -117 -20 -85 0
-96 -2 -139 -30 -39 -25 -54 -29 -90 -24 -27 4 -58 0 -87 -11 -43 -16 -74 -21
-280 -44 -116 -13 -140 -20 -179 -50 -30 -23 -46 -26 -130 -30 -54 -2 -111 2
-133 9 -39 11 -186 24 -243 20 -70 -4 -92 -3 -122 8 -82 29 -102 34 -168 42
-66 7 -127 21 -240 55 -90 27 -180 45 -223 45 -25 0 -58 10 -86 25 -25 14 -59
25 -76 25 -34 0 -64 13 -95 40 -34 30 -93 60 -143 70 -26 6 -71 26 -99 45 -29
19 -55 35 -59 35 -3 0 -25 13 -49 30 -24 17 -48 30 -53 30 -5 0 -15 7 -23 16
-10 12 -22 14 -48 9 -20 -4 -64 -8 -98 -9 -54 -1 -65 2 -90 25 -15 15 -46 38
-69 53 -36 23 -44 25 -73 15 -28 -10 -37 -9 -59 8 -15 11 -32 30 -38 42 -6 12
-13 21 -16 19 -6 -5 -124 75 -193 129 -87 70 -766 757 -791 801 -12 21 -25 49
-29 62 -4 14 -21 54 -37 90 -43 93 -58 138 -58 174 0 37 -54 133 -105 186 -18
19 -36 46 -40 60 -4 14 -21 53 -36 87 -16 33 -29 65 -29 70 0 25 -60 116 -112
169 -56 58 -60 65 -67 122 -6 53 -13 67 -49 107 -42 45 -43 46 -41 113 2 54
-3 80 -25 132 -15 36 -31 81 -35 100 -4 19 -15 49 -24 67 -9 18 -17 47 -17 66
0 18 -16 81 -35 140 -30 92 -35 120 -35 202 0 71 -4 104 -17 128 -11 21 -20
71 -25 147 -4 63 -11 140 -14 170 -4 31 -1 76 6 106 12 48 11 53 -10 82 -21
28 -22 35 -12 70 7 22 12 91 12 154 0 98 3 119 19 139 10 14 24 43 31 66 11
35 10 44 -4 64 -22 32 -20 46 8 80 37 44 60 123 47 161 -6 17 -11 55 -11 84 0
41 5 59 25 82 13 16 29 47 34 68 6 21 19 71 30 109 11 39 19 93 18 122 -2 45
2 56 27 82 24 25 31 42 34 88 3 50 10 65 48 113 43 55 151 261 174 333 6 20
33 61 58 90 55 61 82 98 107 147 10 19 39 58 65 86 35 36 52 66 64 108 19 64
51 100 254 286 76 70 92 90 92 114 0 23 20 49 103 134 56 57 118 111 137 119
41 18 89 58 243 204 123 117 141 129 187 129 27 0 46 14 109 75 77 75 78 75
132 75 45 0 64 6 109 34 30 19 73 45 95 57 22 12 57 37 79 55 25 21 57 37 91
44 35 7 61 20 80 40 23 24 37 30 71 30 24 0 46 5 49 10 3 6 13 10 22 10 20 0
102 35 272 117 185 89 172 86 231 61 l50 -21 68 32 c38 17 72 31 76 31 9 0 61
36 105 74 35 29 57 31 141 11 19 -5 36 2 70 29 27 21 51 33 60 30 8 -3 26 -10
40 -14z"/>
<path d="M7075 9835 c-408 -52 -728 -235 -842 -480 -24 -51 -28 -73 -27 -145
0 -112 29 -177 117 -264 250 -250 842 -291 1292 -88 277 125 451 334 441 528
-9 159 -141 304 -351 385 -70 27 -117 40 -240 64 -69 13 -285 14 -390 0z"/>
<path d="M6790 8310 c-437 -59 -796 -112 -797 -117 -5 -13 -136 -222 -226
-360 -129 -197 -405 -581 -533 -741 -108 -134 -207 -256 -214 -262 -3 -3 -39
-45 -80 -95 -41 -49 -79 -95 -85 -101 -5 -6 -46 -51 -90 -100 -210 -233 -496
-521 -697 -701 l-130 -117 7 -55 c8 -71 15 -101 24 -101 4 0 173 22 376 50
203 27 370 48 372 46 2 -1 -8 -38 -21 -82 -54 -178 -124 -456 -180 -719 -23
-108 -65 -390 -73 -495 -5 -52 -7 -167 -6 -256 3 -272 56 -448 182 -607 55
-69 149 -150 214 -184 133 -68 268 -94 492 -94 455 1 889 117 1443 387 117 57
214 109 216 116 2 7 14 67 26 133 21 121 42 230 85 450 13 66 31 163 41 215 9
52 25 133 34 180 17 86 12 104 -18 77 -27 -24 -214 -133 -314 -183 -215 -108
-332 -140 -477 -131 -115 7 -173 30 -237 94 -159 158 -127 420 118 988 33 77
71 163 83 190 13 28 51 116 85 195 68 158 165 358 492 1015 117 237 233 473
257 525 24 52 68 145 97 205 46 97 118 251 244 520 65 140 100 216 100 221 0
2 -3 3 -7 3 -5 -1 -366 -50 -803 -109z"/>
</g>
</svg>
