<?xml version="1.0" standalone="no"?>
<!DOCTYPE svg PUBLIC "-//W3C//DTD SVG 20010904//EN"
 "http://www.w3.org/TR/2001/REC-SVG-20010904/DTD/svg10.dtd">
<svg version="1.0" xmlns="http://www.w3.org/2000/svg"
 width="2787.000000pt" height="2807.000000pt" viewBox="0 0 2787.000000 2807.000000"
 preserveAspectRatio="xMidYMid meet">
<metadata>
Created by potrace 1.16, written by Peter Selinger 2001-2019
</metadata>
<g transform="translate(0.000000,2807.000000) scale(0.100000,-0.100000)"
fill="#000000" stroke="none">
<path d="M0 14035 l0 -14035 13935 0 13935 0 0 14035 0 14035 -13935 0 -13935
0 0 -14035z m19670 6225 c8 -5 12 -11 10 -14 -3 -2 -14 2 -24 10 -22 15 -10
19 14 4z m113 -71 c45 -29 84 -56 85 -60 2 -5 8 -9 13 -9 8 0 199 -131 339
-234 51 -37 340 -260 385 -297 826 -680 1526 -1487 2087 -2404 248 -407 484
-868 648 -1266 60 -146 64 -187 21 -230 l-29 -29 -194 0 -194 0 -31 28 c-24
20 -53 74 -109 202 -663 1516 -1728 2807 -3132 3798 -95 67 -177 122 -182 122
-6 0 -10 3 -10 8 0 4 -23 20 -50 37 -28 16 -50 32 -50 36 0 4 -8 10 -17 13
-31 11 -69 36 -55 36 7 0 38 -14 69 -31 l55 -31 20 22 c11 12 26 19 34 16 8
-3 14 1 14 10 0 11 5 14 16 10 12 -4 15 -2 10 9 -3 10 3 17 19 21 16 4 25 13
25 25 0 21 20 25 37 8 9 -9 11 -7 6 9 -3 14 2 24 16 31 20 11 25 8 22 -12 -1
-5 3 -5 9 -2 6 4 10 12 7 19 -4 13 28 47 37 39 3 -4 15 2 26 12 14 12 17 21 9
25 -7 5 -5 9 5 13 11 4 16 1 17 -11 0 -10 3 -12 6 -4 2 6 11 12 18 12 8 0 17
5 21 12 5 7 2 9 -9 5 -10 -4 -14 -2 -11 7 3 7 -7 18 -21 26 -14 7 -25 17 -25
22 0 4 -5 8 -11 8 -6 0 -17 7 -25 15 -26 26 -7 17 79 -36z m-528 -209 c13 -6
15 -9 5 -9 -8 0 -22 4 -30 9 -18 12 -2 12 25 0z m42 -26 c-3 -3 -12 -4 -19 -1
-8 3 -5 6 6 6 11 1 17 -2 13 -5z m-14467 -2804 c952 -66 2090 -398 2961 -865
1297 -696 2157 -1579 2418 -2485 81 -280 86 -537 16 -850 -131 -588 -505
-1028 -1130 -1330 -258 -125 -597 -234 -902 -291 -578 -107 -1256 -85 -1858
61 -22 5 -43 10 -46 10 -3 0 -9 -35 -13 -77 -17 -188 -38 -229 -139 -277 -131
-62 -237 -67 -336 -16 -44 22 -102 84 -129 137 -40 78 -89 275 -107 434 l-7
56 -123 61 c-609 305 -1141 734 -1492 1205 -104 140 -133 210 -133 322 0 270
251 495 790 708 294 116 632 215 900 262 52 10 98 20 101 24 4 3 12 94 18 201
28 469 91 865 165 1041 44 105 109 128 183 64 53 -45 176 -226 197 -290 52
-153 91 -445 104 -780 l7 -170 260 -6 c328 -8 440 -19 850 -90 480 -82 782
-213 993 -433 154 -160 203 -331 153 -528 -27 -106 -72 -180 -162 -270 -145
-145 -304 -195 -481 -153 -40 9 -111 34 -158 54 -67 29 -86 42 -94 63 -14 40
18 70 144 131 139 67 185 101 211 153 20 41 20 45 3 79 -79 168 -725 312
-1497 333 -132 4 -243 4 -249 1 -12 -8 18 -1667 31 -1681 5 -6 79 -19 296 -53
140 -22 394 -38 605 -38 276 -1 398 11 740 73 251 45 579 154 803 266 449 225
707 535 782 940 22 113 16 389 -10 504 -111 494 -486 1000 -1105 1491 -677
537 -1697 1043 -2575 1278 -469 125 -801 188 -1245 233 -168 17 -759 17 -905
0 -410 -49 -711 -143 -560 -176 79 -17 260 -76 283 -91 32 -23 29 -67 -7 -98
-43 -36 -135 -52 -301 -52 -180 0 -267 23 -336 89 -104 101 -81 184 131 471
56 77 124 129 190 146 22 6 90 26 150 45 274 84 585 142 875 163 156 12 575
12 740 1z m6848 -400 c138 -33 228 -90 277 -175 25 -42 26 -42 93 -48 175 -17
331 -112 398 -244 28 -56 29 -63 29 -203 0 -126 -3 -153 -23 -210 -131 -363
-484 -726 -907 -930 -141 -68 -201 -90 -350 -126 -96 -24 -130 -27 -270 -28
-163 0 -244 14 -352 59 -20 8 -41 15 -47 15 -6 0 -26 -26 -45 -57 -73 -119
-144 -172 -217 -159 -54 11 -125 88 -175 193 -35 73 -41 96 -41 153 -1 36 5
83 11 103 13 37 12 38 -38 93 -146 160 -192 432 -107 640 97 237 281 465 507
626 355 254 904 384 1257 298z m11837 -1634 c22 -10 40 -27 49 -48 27 -60 108
-577 141 -893 15 -145 45 -496 45 -522 0 -11 135 -13 695 -13 767 0 746 2 785
-62 18 -30 20 -50 20 -196 0 -172 -5 -196 -50 -237 -22 -19 -40 -20 -724 -25
l-701 -5 -2 -180 c-3 -289 -23 -756 -39 -940 -23 -264 -23 -266 -60 -302 l-32
-33 -187 0 c-171 0 -189 2 -215 20 -30 22 -55 78 -46 107 6 21 33 342 45 528
4 72 8 281 7 465 l-1 335 -696 5 c-756 5 -714 2 -745 61 -10 21 -14 70 -14
196 0 151 2 171 20 201 39 63 21 62 755 62 l665 0 0 43 c0 40 -30 370 -49 547
-14 126 -69 486 -97 637 -29 161 -30 193 -4 226 26 33 33 34 233 36 126 1 176
-3 202 -13z m-7899 -412 c80 -53 246 -221 315 -319 230 -326 354 -710 391
-1207 21 -293 -16 -642 -96 -893 -30 -95 -106 -215 -174 -276 -151 -134 -347
-143 -498 -20 -144 116 -360 440 -586 880 -153 297 -214 401 -238 401 -28 0
-48 -207 -60 -650 -16 -538 -41 -713 -118 -793 -127 -134 -352 -76 -422 109
-43 114 -54 218 -54 504 0 278 9 401 50 690 84 597 217 961 377 1039 119 57
209 2 411 -249 166 -207 276 -370 489 -726 184 -308 286 -457 320 -469 44 -15
49 3 43 145 -10 247 -146 882 -311 1455 -67 229 -72 343 -19 400 22 24 31 27
73 23 34 -3 65 -16 107 -44z m4018 -266 c28 -40 17 -228 -20 -338 -9 -25 -35
-81 -59 -126 -63 -118 -204 -374 -269 -487 -108 -190 -173 -373 -192 -537 -7
-57 -8 -88 -5 -173 1 -10 5 -17 10 -15 5 2 44 55 87 118 418 622 837 1069
1160 1237 391 204 690 19 770 -477 29 -178 13 -471 -36 -656 -78 -295 -240
-558 -512 -832 -138 -139 -261 -233 -400 -306 -202 -107 -342 -141 -553 -133
-77 3 -150 8 -162 12 -27 8 -24 14 -128 -255 -224 -580 -381 -1190 -460 -1788
-8 -59 -23 -122 -35 -147 -52 -107 -165 -91 -314 46 -141 129 -242 312 -276
501 -14 75 -14 315 -1 418 34 260 99 528 208 850 56 168 171 464 224 578 16
35 29 65 29 67 0 2 18 42 39 89 l40 85 -39 78 c-78 157 -110 304 -110 504 0
281 58 505 215 824 83 170 193 342 315 495 104 129 323 350 370 373 49 23 86
22 104 -5z m-6249 -68 c264 -19 434 -52 550 -105 88 -40 110 -64 109 -119 -1
-54 -52 -162 -95 -203 -71 -67 -92 -71 -509 -103 -402 -31 -940 -89 -1170
-126 -216 -34 -342 -71 -360 -104 -16 -30 -12 -56 13 -67 62 -30 460 -80 742
-94 492 -24 737 -68 935 -170 240 -124 350 -324 350 -642 0 -184 -29 -358 -76
-448 -34 -68 -115 -158 -172 -193 -145 -88 -435 -185 -682 -228 -117 -20 -532
-17 -638 5 -279 57 -518 184 -713 377 -78 77 -103 110 -132 170 -62 129 -72
217 -36 322 25 75 60 128 130 194 65 61 125 97 199 118 260 77 670 56 1068
-54 196 -54 332 -142 332 -215 0 -71 -122 -160 -270 -196 -74 -19 -366 -19
-440 0 -84 20 -181 56 -262 97 -163 82 -319 113 -388 77 -38 -20 -97 -91 -106
-129 -10 -40 5 -76 49 -116 79 -73 266 -112 537 -112 405 0 799 92 1019 238
155 104 186 201 93 298 -114 120 -601 214 -1202 233 -464 14 -734 68 -821 162
-58 61 -64 86 -63 243 0 221 39 349 138 457 187 206 618 361 1211 436 66 9
529 6 660 -3z m4997 -24 c113 -50 209 -151 293 -308 62 -116 61 -189 -3 -221
-86 -44 -484 -91 -1037 -122 -60 -4 -117 -8 -125 -11 -10 -2 -30 -48 -54 -127
-21 -67 -42 -132 -47 -145 -5 -13 -9 -26 -9 -30 0 -4 161 -7 357 -7 389 0 405
-2 436 -54 13 -23 17 -54 17 -143 -1 -179 -20 -226 -103 -247 -53 -13 -264
-27 -617 -42 -151 -6 -278 -14 -282 -18 -4 -3 -37 -109 -73 -235 -80 -276 -82
-268 46 -237 178 44 710 132 880 147 64 5 84 3 122 -14 111 -49 193 -189 173
-297 -19 -101 -296 -314 -608 -467 -270 -133 -454 -188 -658 -195 -120 -5
-142 -3 -200 17 -170 57 -345 234 -412 417 -18 49 -21 81 -21 213 -1 185 18
286 93 511 l49 147 -20 53 c-47 131 -59 266 -27 320 19 31 83 60 162 73 40 7
73 18 78 27 24 41 178 369 178 378 0 6 -17 11 -37 11 -78 0 -194 45 -258 98
-41 34 -114 129 -136 177 -27 57 -24 97 7 129 31 30 74 44 245 79 282 59 539
96 839 122 102 9 196 17 210 19 14 2 129 4 257 5 224 1 234 0 285 -23z m-7536
-35 c31 -14 56 -40 101 -102 134 -187 138 -201 163 -749 6 -118 15 -305 20
-415 5 -110 15 -310 21 -445 20 -413 0 -760 -48 -843 -63 -110 -360 -110 -476
1 -53 51 -79 146 -96 357 -24 304 -24 434 4 1215 18 494 59 814 116 906 23 38
67 72 107 84 39 12 43 11 88 -9z"/>
<path d="M19690 20059 c0 -5 5 -7 10 -4 6 3 10 8 10 11 0 2 -4 4 -10 4 -5 0
-10 -5 -10 -11z"/>
<path d="M5470 13619 c-302 -31 -391 -41 -440 -49 -30 -5 -100 -17 -155 -26
-202 -32 -331 -61 -510 -116 -224 -69 -304 -116 -326 -189 -22 -73 -2 -107
150 -259 270 -268 575 -482 936 -655 142 -69 393 -175 413 -175 5 0 12 51 16
113 3 61 10 182 16 267 16 254 25 569 25 840 0 294 15 263 -125 249z"/>
<path d="M10823 16205 c-232 -60 -420 -220 -526 -447 -38 -82 -44 -204 -10
-215 6 -2 37 33 69 79 130 183 317 386 474 512 47 38 91 71 98 73 6 3 12 9 12
14 0 13 -14 11 -117 -16z"/>
<path d="M11840 16160 c-209 -27 -503 -212 -793 -498 -151 -148 -320 -352
-306 -367 16 -16 174 -27 328 -22 289 8 469 61 676 201 141 94 311 314 336
434 39 188 -46 277 -241 252z"/>
<path d="M20634 13642 c-111 -81 -443 -486 -641 -782 -130 -194 -281 -456
-269 -467 9 -10 196 37 286 72 194 74 313 147 430 265 164 165 275 350 327
541 12 46 17 103 18 201 0 123 -2 139 -21 165 -30 41 -78 43 -130 5z"/>
</g>
</svg>
